<?xml version="1.0" encoding="UTF-8"?>
<svg width="568px" height="558px" viewBox="0 0 568 558" version="1.1" xmlns="http://www.w3.org/2000/svg" xmlns:xlink="http://www.w3.org/1999/xlink">
    <title>ET Now</title>
    <g id="All-Logos" stroke="none" stroke-width="1" fill="none" fill-rule="evenodd">
        <g id="ET-Now-" transform="translate(-116, -111)">
            <g id="ET-Now" transform="translate(116, 111)">
                <rect id="Rectangle" fill="#FFFFFF" x="0" y="0" width="568" height="558"></rect>
                <g transform="translate(10, 9)">
                    <polygon id="Fill-17" fill="#FEFEFE" points="0 446.263725 547.834646 446.263725 547.834646 0 0 0"></polygon>
                    <polygon id="Fill-18" fill="#BE1F24" points="0 323.081971 547.834646 323.081971 547.834646 0 0 0"></polygon>
                    <polygon id="Fill-19" fill="#FEFEFE" points="42.1411266 39.9800432 251.030569 39.9800432 251.030569 105.47658 119.840005 105.47658 119.840005 137.545862 238.940187 137.545862 238.940187 198.505913 119.840005 198.505913 119.840005 230.575195 255.007843 230.575195 255.007843 296.068428 42.1411266 296.068428"></polygon>
                    <polygon id="Fill-20" fill="#FEFEFE" points="358.168285 105.475735 287.424094 105.475735 287.424094 39.9800432 506.774061 39.9800432 506.774061 105.475735 435.924084 105.475735 435.924084 296.068428 358.168285 296.068428"></polygon>
                    <polygon id="Fill-21" fill="#BE1F24" points="0 446.263725 179.369923 446.263725 179.369923 326.323596 0 326.323596"></polygon>
                    <polygon id="Fill-22" fill="#FEFEFE" points="24.8524593 341.45118 69.758481 341.45118 124.195024 408.963558 124.455818 408.963558 124.455818 341.45118 153.436922 341.45118 153.436922 434.377766 108.530901 434.377766 54.0943574 366.865388 53.8335638 366.865388 53.8335638 434.377766 24.8524593 434.377766"></polygon>
                    <polygon id="Fill-23" fill="#BE1F24" points="183.69209 446.263725 364.142555 446.263725 364.142555 326.323596 183.69209 326.323596"></polygon>
                    <path d="M238.287074,392.926226 C238.287074,396.264086 238.5015,399.138814 238.93695,401.53387 C239.372399,403.935541 240.197115,405.860848 241.417693,407.319715 C242.631674,408.775273 244.330587,409.843786 246.504536,410.52856 C248.678485,411.216642 251.462723,411.557375 254.850652,411.557375 L291.900153,411.557375 C295.291381,411.557375 298.075619,411.216642 300.249568,410.52856 C302.420218,409.843786 304.115833,408.775273 305.336411,407.319715 C306.550392,405.860848 307.378406,403.935541 307.813855,401.53387 C308.249305,399.138814 308.463731,396.264086 308.463731,392.926226 L308.463731,382.90272 C308.463731,379.991603 308.226213,377.401371 307.747878,375.128714 C307.269543,372.862674 306.378851,370.910903 305.075801,369.283324 C303.769452,367.655744 301.945183,366.411904 299.596394,365.555109 C297.247605,364.701622 294.159872,364.268263 290.333194,364.268263 L256.42091,364.268263 C252.587634,364.268263 249.5032,364.701622 247.154411,365.555109 C244.808921,366.411904 242.981353,367.655744 241.678303,369.283324 C240.371954,370.910903 239.481262,372.862674 239.002927,375.128714 C238.524592,377.401371 238.287074,379.991603 238.287074,382.90272 L238.287074,392.926226 Z M208.54455,374.037045 C208.54455,367.272006 209.478127,361.701187 211.348581,357.331203 C213.215736,352.961219 215.957089,349.5175 219.566042,346.986813 C223.171696,344.462742 227.545985,342.729304 232.675713,341.783191 C237.805441,340.843694 243.634527,340.370638 250.156374,340.370638 L296.594431,340.370638 C303.119577,340.370638 308.942065,340.843694 314.075092,341.783191 C319.20482,342.729304 323.57581,344.462742 327.184763,346.986813 C330.793716,349.5175 333.53177,352.961219 335.402224,357.331203 C337.272678,361.701187 338.209554,367.272006 338.209554,374.037045 L338.209554,401.7919 C338.209554,408.646258 337.272678,414.236926 335.402224,418.560597 C333.53177,422.887575 330.793716,426.314754 327.184763,428.842133 C323.57581,431.369512 319.20482,433.106258 314.075092,434.045755 C308.942065,434.985252 303.119577,435.458308 296.594431,435.458308 L250.156374,435.458308 C243.634527,435.458308 237.805441,434.985252 232.675713,434.045755 C227.545985,433.106258 223.171696,431.369512 219.566042,428.842133 C215.957089,426.314754 213.215736,422.887575 211.348581,418.560597 C209.478127,414.236926 208.54455,408.646258 208.54455,401.7919 L208.54455,374.037045 Z" id="Fill-24" fill="#FEFEFE"></path>
                    <polygon id="Fill-25" fill="#BE1F24" points="367.384181 446.263725 547.834646 446.263725 547.834646 326.323596 367.384181 326.323596"></polygon>
                    <polygon id="Fill-26" fill="#FEFEFE" points="371.706347 341.45118 400.128298 341.45118 420.296257 409.736789 420.561232 409.736789 444.660767 341.45118 471.641913 341.45118 495.741448 409.736789 496.003111 409.736789 516.174382 341.45118 544.593021 341.45118 513.816099 434.377766 480.415919 434.377766 458.280516 373.028111 458.018852 373.028111 435.883449 434.377766 402.486581 434.377766"></polygon>
                </g>
                <g id="ETNOW.in" transform="translate(14.4, 474.1)" fill-rule="nonzero">
                    <polygon id="Path" fill="#BE1F24" points="42.9 19.1 42.9 2.5 0 2.5 0 77.9 42.9 77.9 42.9 61.3 19.6 61.3 19.6 48.3 41.7 48.3 41.7 31.7 19.6 31.7 19.6 19.1"></polygon>
                    <polygon id="Path" fill="#BE1F24" points="85 19.1 101.2 19.1 101.2 2.5 49.2 2.5 49.2 19.1 65.4 19.1 65.4 77.9 85 77.9"></polygon>
                    <polygon id="Path" fill="#000000" points="108.3 77.9 127.9 77.9 127.9 31.7 128.1 31.7 164 77.9 183.6 77.9 183.6 2.5 164 2.5 164 48.6 163.8 48.6 127.9 2.5 108.3 2.5"></polygon>
                    <path d="M234.3,0 C212.6,0 192.6,16 192.6,38.8 C192.6,63.2 210.1,80.4 234.3,80.4 C258.5,80.4 276,63.2 276,38.8 C276,16 256,0 234.3,0 Z M234.3,19 C246,19 255.6,28.5 255.6,38.9 C255.6,51.9 246,61.4 234.3,61.4 C222.6,61.4 213,51.9 213,38.9 C213,28.5 222.6,19 234.3,19 Z" id="Shape" fill="#000000"></path>
                    <polygon id="Path" fill="#000000" points="297.6 2.5 277.2 2.5 299.7 77.9 319.6 77.9 334.4 34.2 334.6 34.2 347.8 77.9 367.8 77.9 391.9 2.5 371.5 2.5 357.3 51.2 357.1 51.2 342.3 2.5 326.7 2.5 310.9 51.2 310.7 51.2"></polygon>
                    <path d="M407.6,56.5 C401.1,56.5 395.9,61.7 395.9,68.2 C395.9,74.6 401.1,79.9 407.6,79.9 C414.1,79.9 419.3,74.6 419.3,68.2 C419.3,61.7 414.1,56.5 407.6,56.5 Z" id="Path" fill="#000000"></path>
                    <polygon id="Path" fill="#000000" points="450.7 2.5 431.1 2.5 431.1 77.9 450.7 77.9"></polygon>
                    <polygon id="Path" fill="#000000" points="463.5 77.9 483.1 77.9 483.1 31.7 483.3 31.7 519.2 77.9 538.8 77.9 538.8 2.5 519.2 2.5 519.2 48.6 519 48.6 483.1 2.5 463.5 2.5"></polygon>
                </g>
            </g>
        </g>
    </g>
</svg>